name rise43.5482peak65.4966fall89.1036.mot
datacolumns 19
datarows 21
range 23.87992500000000 23.91323300000000
endheader
time	ground_force1_vx	ground_force1_vy	ground_force1_vz	ground_force1_px	ground_force1_py	ground_force1_pz	ground_force2_vx	ground_force2_vy	ground_force2_vz	ground_force2_px	ground_force2_py	ground_force2_pz	ground_torque1_x	ground_torque1_y	ground_torque1_z	ground_torque2_x	ground_torque2_y	ground_torque2_z	
23.87992500000000	58.06378200000000	791.30517399999997	63.00146000000000	0.26719700000000	0.00000000000000	0.11990000000000	0.00000000000000	0.00000000000000	0.00000000000000	0.00000000000000	0.00000000000000	0.00000000000000	0.00000000000000	19.11981500000000	0.00000000000000	0.00000000000000	0.00000000000000	0.00000000000000	
23.88157100000000	57.34698100000000	793.06230700000003	63.06338000000000	0.26641200000000	0.00000000000000	0.11990900000000	0.00000000000000	0.00000000000000	0.00000000000000	0.00000000000000	0.00000000000000	0.00000000000000	0.00000000000000	19.17509100000000	0.00000000000000	0.00000000000000	0.00000000000000	0.00000000000000	
23.88323900000000	56.62869200000000	794.65126199999997	63.12643400000000	0.26562400000000	0.00000000000000	0.11992100000000	0.00000000000000	0.00000000000000	0.00000000000000	0.00000000000000	0.00000000000000	0.00000000000000	0.00000000000000	19.23138000000000	0.00000000000000	0.00000000000000	0.00000000000000	0.00000000000000	
23.88490600000000	55.90936400000000	796.07317000000000	63.19033300000000	0.26483100000000	0.00000000000000	0.11993500000000	0.00000000000000	0.00000000000000	0.00000000000000	0.00000000000000	0.00000000000000	0.00000000000000	0.00000000000000	19.28843300000000	0.00000000000000	0.00000000000000	0.00000000000000	0.00000000000000	
23.88656900000000	55.18940600000000	797.32943699999998	63.25471300000000	0.26403300000000	0.00000000000000	0.11995100000000	0.00000000000000	0.00000000000000	0.00000000000000	0.00000000000000	0.00000000000000	0.00000000000000	0.00000000000000	19.34596900000000	0.00000000000000	0.00000000000000	0.00000000000000	0.00000000000000	
23.88824100000000	54.46919800000000	798.42173800000000	63.31914200000000	0.26322700000000	0.00000000000000	0.11997000000000	0.00000000000000	0.00000000000000	0.00000000000000	0.00000000000000	0.00000000000000	0.00000000000000	0.00000000000000	19.40367700000000	0.00000000000000	0.00000000000000	0.00000000000000	0.00000000000000	
23.88992300000000	53.74908900000000	799.35202300000003	63.38312400000000	0.26241200000000	0.00000000000000	0.11999100000000	0.00000000000000	0.00000000000000	0.00000000000000	0.00000000000000	0.00000000000000	0.00000000000000	0.00000000000000	19.46122300000000	0.00000000000000	0.00000000000000	0.00000000000000	0.00000000000000	
23.89156800000000	53.02940500000000	800.12251000000003	63.44611000000000	0.26158800000000	0.00000000000000	0.12001500000000	0.00000000000000	0.00000000000000	0.00000000000000	0.00000000000000	0.00000000000000	0.00000000000000	0.00000000000000	19.51825200000000	0.00000000000000	0.00000000000000	0.00000000000000	0.00000000000000	
23.89323400000000	52.31044900000000	800.73568399999999	63.50750400000000	0.26075300000000	0.00000000000000	0.12004100000000	0.00000000000000	0.00000000000000	0.00000000000000	0.00000000000000	0.00000000000000	0.00000000000000	0.00000000000000	19.57438800000000	0.00000000000000	0.00000000000000	0.00000000000000	0.00000000000000	
23.89490100000000	51.59250900000000	801.19429100000002	63.56666700000000	0.25990600000000	0.00000000000000	0.12006900000000	0.00000000000000	0.00000000000000	0.00000000000000	0.00000000000000	0.00000000000000	0.00000000000000	0.00000000000000	19.62924300000000	0.00000000000000	0.00000000000000	0.00000000000000	0.00000000000000	
23.89657400000000	50.87585600000000	801.50133500000004	63.62292900000000	0.25904600000000	0.00000000000000	0.12009900000000	0.00000000000000	0.00000000000000	0.00000000000000	0.00000000000000	0.00000000000000	0.00000000000000	0.00000000000000	19.68241900000000	0.00000000000000	0.00000000000000	0.00000000000000	0.00000000000000	
23.89823800000000	50.16075400000000	801.66006800000002	63.67559200000000	0.25817300000000	0.00000000000000	0.12013000000000	0.00000000000000	0.00000000000000	0.00000000000000	0.00000000000000	0.00000000000000	0.00000000000000	0.00000000000000	19.73350800000000	0.00000000000000	0.00000000000000	0.00000000000000	0.00000000000000	
23.89991000000000	49.44745900000000	801.67398400000002	63.72394200000000	0.25728400000000	0.00000000000000	0.12016400000000	0.00000000000000	0.00000000000000	0.00000000000000	0.00000000000000	0.00000000000000	0.00000000000000	0.00000000000000	19.78210000000000	0.00000000000000	0.00000000000000	0.00000000000000	0.00000000000000	
23.90157400000000	48.73622200000000	801.54681100000005	63.76725300000000	0.25638000000000	0.00000000000000	0.12020000000000	0.00000000000000	0.00000000000000	0.00000000000000	0.00000000000000	0.00000000000000	0.00000000000000	0.00000000000000	19.82778700000000	0.00000000000000	0.00000000000000	0.00000000000000	0.00000000000000	
23.90323900000000	48.02729400000000	801.28250200000002	63.80479400000000	0.25546000000000	0.00000000000000	0.12023700000000	0.00000000000000	0.00000000000000	0.00000000000000	0.00000000000000	0.00000000000000	0.00000000000000	0.00000000000000	19.87016200000000	0.00000000000000	0.00000000000000	0.00000000000000	0.00000000000000	
23.90490700000000	47.32093000000000	800.88522100000000	63.83583900000000	0.25452300000000	0.00000000000000	0.12027500000000	0.00000000000000	0.00000000000000	0.00000000000000	0.00000000000000	0.00000000000000	0.00000000000000	0.00000000000000	19.90882600000000	0.00000000000000	0.00000000000000	0.00000000000000	0.00000000000000	
23.90657100000000	46.61738700000000	800.35933599999998	63.85967100000000	0.25356800000000	0.00000000000000	0.12031500000000	0.00000000000000	0.00000000000000	0.00000000000000	0.00000000000000	0.00000000000000	0.00000000000000	0.00000000000000	19.94339200000000	0.00000000000000	0.00000000000000	0.00000000000000	0.00000000000000	
23.90823500000000	45.91692800000000	799.70940599999994	63.87558900000000	0.25259700000000	0.00000000000000	0.12035600000000	0.00000000000000	0.00000000000000	0.00000000000000	0.00000000000000	0.00000000000000	0.00000000000000	0.00000000000000	19.97348300000000	0.00000000000000	0.00000000000000	0.00000000000000	0.00000000000000	
23.90990800000000	45.21982800000000	798.94016399999998	63.88291600000000	0.25160800000000	0.00000000000000	0.12039800000000	0.00000000000000	0.00000000000000	0.00000000000000	0.00000000000000	0.00000000000000	0.00000000000000	0.00000000000000	19.99874300000000	0.00000000000000	0.00000000000000	0.00000000000000	0.00000000000000	
23.91157100000000	44.52636900000000	798.05651200000000	63.88100200000000	0.25060000000000	0.00000000000000	0.12044100000000	0.00000000000000	0.00000000000000	0.00000000000000	0.00000000000000	0.00000000000000	0.00000000000000	0.00000000000000	20.01883200000000	0.00000000000000	0.00000000000000	0.00000000000000	0.00000000000000	
23.91323300000000	43.83684500000000	797.06349799999998	63.86923200000000	0.24957600000000	0.00000000000000	0.12048500000000	0.00000000000000	0.00000000000000	0.00000000000000	0.00000000000000	0.00000000000000	0.00000000000000	0.00000000000000	20.03343400000000	0.00000000000000	0.00000000000000	0.00000000000000	0.00000000000000	
